<svg xmlns="http://www.w3.org/2000/svg" xmlns:xlink="http://www.w3.org/1999/xlink" width="1920" zoomAndPan="magnify" viewBox="0 0 1440 809.999993" height="1080" preserveAspectRatio="xMidYMid meet" version="1.0"><defs><clipPath id="957f3787b0"><path d="M 453 70 L 981 70 L 981 752 L 453 752 Z M 453 70 " clip-rule="nonzero"/></clipPath><clipPath id="d9ee6fdb32"><path d="M 443.449219 47.441406 L 981.835938 36.425781 L 996.6875 762.273438 L 458.300781 773.289062 Z M 443.449219 47.441406 " clip-rule="nonzero"/></clipPath><clipPath id="b2fb6bd830"><path d="M 443.449219 47.441406 L 981.835938 36.425781 L 996.6875 762.273438 L 458.300781 773.289062 Z M 443.449219 47.441406 " clip-rule="nonzero"/></clipPath><clipPath id="a78f8ac9ed"><path d="M 444 46 L 608 46 L 608 678 L 444 678 Z M 444 46 " clip-rule="nonzero"/></clipPath><clipPath id="026fe57f90"><path d="M 443.449219 47.441406 L 981.835938 36.425781 L 996.6875 762.273438 L 458.300781 773.289062 Z M 443.449219 47.441406 " clip-rule="nonzero"/></clipPath><clipPath id="b7d68e3324"><path d="M 443.449219 47.441406 L 981.835938 36.425781 L 996.6875 762.273438 L 458.300781 773.289062 Z M 443.449219 47.441406 " clip-rule="nonzero"/></clipPath><clipPath id="da68f04fb2"><path d="M 477 85 L 526 85 L 526 128 L 477 128 Z M 477 85 " clip-rule="nonzero"/></clipPath><clipPath id="66912a4114"><path d="M 443.449219 47.441406 L 981.835938 36.425781 L 996.6875 762.273438 L 458.300781 773.289062 Z M 443.449219 47.441406 " clip-rule="nonzero"/></clipPath><clipPath id="b3c1942380"><path d="M 443.449219 47.441406 L 981.835938 36.425781 L 996.6875 762.273438 L 458.300781 773.289062 Z M 443.449219 47.441406 " clip-rule="nonzero"/></clipPath><clipPath id="4f41dd9274"><path d="M 527 111 L 573 111 L 573 156 L 527 156 Z M 527 111 " clip-rule="nonzero"/></clipPath><clipPath id="a0a1b69b39"><path d="M 443.449219 47.441406 L 981.835938 36.425781 L 996.6875 762.273438 L 458.300781 773.289062 Z M 443.449219 47.441406 " clip-rule="nonzero"/></clipPath><clipPath id="cdd347c2bf"><path d="M 443.449219 47.441406 L 981.835938 36.425781 L 996.6875 762.273438 L 458.300781 773.289062 Z M 443.449219 47.441406 " clip-rule="nonzero"/></clipPath><clipPath id="b3233fa3d5"><path d="M 571 140 L 617 140 L 617 186 L 571 186 Z M 571 140 " clip-rule="nonzero"/></clipPath><clipPath id="1cf84e4d15"><path d="M 443.449219 47.441406 L 981.835938 36.425781 L 996.6875 762.273438 L 458.300781 773.289062 Z M 443.449219 47.441406 " clip-rule="nonzero"/></clipPath><clipPath id="b3eaa505cd"><path d="M 443.449219 47.441406 L 981.835938 36.425781 L 996.6875 762.273438 L 458.300781 773.289062 Z M 443.449219 47.441406 " clip-rule="nonzero"/></clipPath><clipPath id="98af1afc96"><path d="M 617 169 L 662 169 L 662 214 L 617 214 Z M 617 169 " clip-rule="nonzero"/></clipPath><clipPath id="d4594141ab"><path d="M 443.449219 47.441406 L 981.835938 36.425781 L 996.6875 762.273438 L 458.300781 773.289062 Z M 443.449219 47.441406 " clip-rule="nonzero"/></clipPath><clipPath id="b88446e3e0"><path d="M 443.449219 47.441406 L 981.835938 36.425781 L 996.6875 762.273438 L 458.300781 773.289062 Z M 443.449219 47.441406 " clip-rule="nonzero"/></clipPath><clipPath id="76a78b118c"><path d="M 658 196 L 704 196 L 704 241 L 658 241 Z M 658 196 " clip-rule="nonzero"/></clipPath><clipPath id="fd61fa0d52"><path d="M 443.449219 47.441406 L 981.835938 36.425781 L 996.6875 762.273438 L 458.300781 773.289062 Z M 443.449219 47.441406 " clip-rule="nonzero"/></clipPath><clipPath id="e5fb600cd2"><path d="M 443.449219 47.441406 L 981.835938 36.425781 L 996.6875 762.273438 L 458.300781 773.289062 Z M 443.449219 47.441406 " clip-rule="nonzero"/></clipPath><clipPath id="5f7edd2d84"><path d="M 704 224 L 749 224 L 749 270 L 704 270 Z M 704 224 " clip-rule="nonzero"/></clipPath><clipPath id="f96b2bb1f9"><path d="M 443.449219 47.441406 L 981.835938 36.425781 L 996.6875 762.273438 L 458.300781 773.289062 Z M 443.449219 47.441406 " clip-rule="nonzero"/></clipPath><clipPath id="8cd391bc2a"><path d="M 443.449219 47.441406 L 981.835938 36.425781 L 996.6875 762.273438 L 458.300781 773.289062 Z M 443.449219 47.441406 " clip-rule="nonzero"/></clipPath><clipPath id="e9fcd583ae"><path d="M 749 254 L 794 254 L 794 299 L 749 299 Z M 749 254 " clip-rule="nonzero"/></clipPath><clipPath id="f0eba8a2bd"><path d="M 443.449219 47.441406 L 981.835938 36.425781 L 996.6875 762.273438 L 458.300781 773.289062 Z M 443.449219 47.441406 " clip-rule="nonzero"/></clipPath><clipPath id="dd2f098a7a"><path d="M 443.449219 47.441406 L 981.835938 36.425781 L 996.6875 762.273438 L 458.300781 773.289062 Z M 443.449219 47.441406 " clip-rule="nonzero"/></clipPath><clipPath id="0c0d46050a"><path d="M 794 283 L 839 283 L 839 329 L 794 329 Z M 794 283 " clip-rule="nonzero"/></clipPath><clipPath id="4af36cdb9c"><path d="M 443.449219 47.441406 L 981.835938 36.425781 L 996.6875 762.273438 L 458.300781 773.289062 Z M 443.449219 47.441406 " clip-rule="nonzero"/></clipPath><clipPath id="5827976bce"><path d="M 443.449219 47.441406 L 981.835938 36.425781 L 996.6875 762.273438 L 458.300781 773.289062 Z M 443.449219 47.441406 " clip-rule="nonzero"/></clipPath><clipPath id="ae1330ff69"><path d="M 838 313 L 883 313 L 883 358 L 838 358 Z M 838 313 " clip-rule="nonzero"/></clipPath><clipPath id="6896b87792"><path d="M 443.449219 47.441406 L 981.835938 36.425781 L 996.6875 762.273438 L 458.300781 773.289062 Z M 443.449219 47.441406 " clip-rule="nonzero"/></clipPath><clipPath id="e850670068"><path d="M 443.449219 47.441406 L 981.835938 36.425781 L 996.6875 762.273438 L 458.300781 773.289062 Z M 443.449219 47.441406 " clip-rule="nonzero"/></clipPath><clipPath id="80a270a218"><path d="M 786 435 L 838 435 L 838 515 L 786 515 Z M 786 435 " clip-rule="nonzero"/></clipPath><clipPath id="fdd5c2a334"><path d="M 443.449219 47.441406 L 981.835938 36.425781 L 996.6875 762.273438 L 458.300781 773.289062 Z M 443.449219 47.441406 " clip-rule="nonzero"/></clipPath><clipPath id="c31f826213"><path d="M 443.449219 47.441406 L 981.835938 36.425781 L 996.6875 762.273438 L 458.300781 773.289062 Z M 443.449219 47.441406 " clip-rule="nonzero"/></clipPath><clipPath id="4cdfb8b0ac"><path d="M 728 522 L 781 522 L 781 603 L 728 603 Z M 728 522 " clip-rule="nonzero"/></clipPath><clipPath id="7ee3e59bcd"><path d="M 443.449219 47.441406 L 981.835938 36.425781 L 996.6875 762.273438 L 458.300781 773.289062 Z M 443.449219 47.441406 " clip-rule="nonzero"/></clipPath><clipPath id="549ef86de8"><path d="M 443.449219 47.441406 L 981.835938 36.425781 L 996.6875 762.273438 L 458.300781 773.289062 Z M 443.449219 47.441406 " clip-rule="nonzero"/></clipPath><clipPath id="1b155446bb"><path d="M 779 590 L 831 590 L 831 671 L 779 671 Z M 779 590 " clip-rule="nonzero"/></clipPath><clipPath id="4a086e8bb2"><path d="M 443.449219 47.441406 L 981.835938 36.425781 L 996.6875 762.273438 L 458.300781 773.289062 Z M 443.449219 47.441406 " clip-rule="nonzero"/></clipPath><clipPath id="028cf0d63b"><path d="M 443.449219 47.441406 L 981.835938 36.425781 L 996.6875 762.273438 L 458.300781 773.289062 Z M 443.449219 47.441406 " clip-rule="nonzero"/></clipPath><clipPath id="4838737282"><path d="M 830 650 L 883 650 L 883 731 L 830 731 Z M 830 650 " clip-rule="nonzero"/></clipPath><clipPath id="503a19ab84"><path d="M 443.449219 47.441406 L 981.835938 36.425781 L 996.6875 762.273438 L 458.300781 773.289062 Z M 443.449219 47.441406 " clip-rule="nonzero"/></clipPath><clipPath id="308dc2a8b8"><path d="M 443.449219 47.441406 L 981.835938 36.425781 L 996.6875 762.273438 L 458.300781 773.289062 Z M 443.449219 47.441406 " clip-rule="nonzero"/></clipPath><clipPath id="a473dd4487"><path d="M 837 499 L 890 499 L 890 580 L 837 580 Z M 837 499 " clip-rule="nonzero"/></clipPath><clipPath id="63ac662e51"><path d="M 443.449219 47.441406 L 981.835938 36.425781 L 996.6875 762.273438 L 458.300781 773.289062 Z M 443.449219 47.441406 " clip-rule="nonzero"/></clipPath><clipPath id="50f683ca80"><path d="M 443.449219 47.441406 L 981.835938 36.425781 L 996.6875 762.273438 L 458.300781 773.289062 Z M 443.449219 47.441406 " clip-rule="nonzero"/></clipPath><clipPath id="affad6c38c"><path d="M 890 567 L 943 567 L 943 647 L 890 647 Z M 890 567 " clip-rule="nonzero"/></clipPath><clipPath id="a60822f217"><path d="M 443.449219 47.441406 L 981.835938 36.425781 L 996.6875 762.273438 L 458.300781 773.289062 Z M 443.449219 47.441406 " clip-rule="nonzero"/></clipPath><clipPath id="751d936eeb"><path d="M 443.449219 47.441406 L 981.835938 36.425781 L 996.6875 762.273438 L 458.300781 773.289062 Z M 443.449219 47.441406 " clip-rule="nonzero"/></clipPath><clipPath id="7bfc723cdd"><path d="M 942 632 L 994 632 L 994 712 L 942 712 Z M 942 632 " clip-rule="nonzero"/></clipPath><clipPath id="96ed3c5f32"><path d="M 443.449219 47.441406 L 981.835938 36.425781 L 996.6875 762.273438 L 458.300781 773.289062 Z M 443.449219 47.441406 " clip-rule="nonzero"/></clipPath><clipPath id="1fb16cd414"><path d="M 443.449219 47.441406 L 981.835938 36.425781 L 996.6875 762.273438 L 458.300781 773.289062 Z M 443.449219 47.441406 " clip-rule="nonzero"/></clipPath><clipPath id="d67d373bb9"><path d="M 882 342 L 928 342 L 928 388 L 882 388 Z M 882 342 " clip-rule="nonzero"/></clipPath><clipPath id="7c479d8886"><path d="M 443.449219 47.441406 L 981.835938 36.425781 L 996.6875 762.273438 L 458.300781 773.289062 Z M 443.449219 47.441406 " clip-rule="nonzero"/></clipPath><clipPath id="3cd56de47a"><path d="M 443.449219 47.441406 L 981.835938 36.425781 L 996.6875 762.273438 L 458.300781 773.289062 Z M 443.449219 47.441406 " clip-rule="nonzero"/></clipPath><clipPath id="ff11fc4f9b"><path d="M 778 369 L 968 369 L 968 445 L 778 445 Z M 778 369 " clip-rule="nonzero"/></clipPath><clipPath id="8d850098b1"><path d="M 443.449219 47.441406 L 981.835938 36.425781 L 996.6875 762.273438 L 458.300781 773.289062 Z M 443.449219 47.441406 " clip-rule="nonzero"/></clipPath><clipPath id="8e8031a6a6"><path d="M 443.449219 47.441406 L 981.835938 36.425781 L 996.6875 762.273438 L 458.300781 773.289062 Z M 443.449219 47.441406 " clip-rule="nonzero"/></clipPath><clipPath id="c9c65e0f5a"><path d="M 591 589 L 637 589 L 637 635 L 591 635 Z M 591 589 " clip-rule="nonzero"/></clipPath><clipPath id="41e09e4cf0"><path d="M 443.449219 47.441406 L 981.835938 36.425781 L 996.6875 762.273438 L 458.300781 773.289062 Z M 443.449219 47.441406 " clip-rule="nonzero"/></clipPath><clipPath id="0b023c2de7"><path d="M 443.449219 47.441406 L 981.835938 36.425781 L 996.6875 762.273438 L 458.300781 773.289062 Z M 443.449219 47.441406 " clip-rule="nonzero"/></clipPath><clipPath id="35ac61463f"><path d="M 617 544 L 663 544 L 663 590 L 617 590 Z M 617 544 " clip-rule="nonzero"/></clipPath><clipPath id="644ee647bd"><path d="M 443.449219 47.441406 L 981.835938 36.425781 L 996.6875 762.273438 L 458.300781 773.289062 Z M 443.449219 47.441406 " clip-rule="nonzero"/></clipPath><clipPath id="2638197886"><path d="M 443.449219 47.441406 L 981.835938 36.425781 L 996.6875 762.273438 L 458.300781 773.289062 Z M 443.449219 47.441406 " clip-rule="nonzero"/></clipPath><clipPath id="75e12c8e31"><path d="M 646 500 L 692 500 L 692 546 L 646 546 Z M 646 500 " clip-rule="nonzero"/></clipPath><clipPath id="a220553111"><path d="M 443.449219 47.441406 L 981.835938 36.425781 L 996.6875 762.273438 L 458.300781 773.289062 Z M 443.449219 47.441406 " clip-rule="nonzero"/></clipPath><clipPath id="1332e3fdf8"><path d="M 443.449219 47.441406 L 981.835938 36.425781 L 996.6875 762.273438 L 458.300781 773.289062 Z M 443.449219 47.441406 " clip-rule="nonzero"/></clipPath><clipPath id="17c1cafc0f"><path d="M 677 458 L 729 458 L 729 537 L 677 537 Z M 677 458 " clip-rule="nonzero"/></clipPath><clipPath id="39c84d0717"><path d="M 443.449219 47.441406 L 981.835938 36.425781 L 996.6875 762.273438 L 458.300781 773.289062 Z M 443.449219 47.441406 " clip-rule="nonzero"/></clipPath><clipPath id="8e4c7d12cf"><path d="M 443.449219 47.441406 L 981.835938 36.425781 L 996.6875 762.273438 L 458.300781 773.289062 Z M 443.449219 47.441406 " clip-rule="nonzero"/></clipPath><clipPath id="ee41e3c570"><path d="M 883 712 L 964 712 L 964 765 L 883 765 Z M 883 712 " clip-rule="nonzero"/></clipPath><clipPath id="6ed203a489"><path d="M 443.449219 47.441406 L 981.835938 36.425781 L 996.6875 762.273438 L 458.300781 773.289062 Z M 443.449219 47.441406 " clip-rule="nonzero"/></clipPath><clipPath id="fc684a8fdb"><path d="M 443.449219 47.441406 L 981.835938 36.425781 L 996.6875 762.273438 L 458.300781 773.289062 Z M 443.449219 47.441406 " clip-rule="nonzero"/></clipPath></defs><g clip-path="url(#957f3787b0)"><g clip-path="url(#d9ee6fdb32)"><g clip-path="url(#b2fb6bd830)"><path fill="#ffffff" d="M 811.917969 474.78125 L 980.214844 694.917969 L 903.566406 751.359375 L 692.53125 483.777344 L 572.835938 677.863281 L 453.953125 70.976562 L 927.070312 379.0625 L 785.886719 443.375 Z M 811.917969 474.78125 " fill-opacity="1" fill-rule="nonzero"/></g></g></g><g clip-path="url(#a78f8ac9ed)"><g clip-path="url(#026fe57f90)"><g clip-path="url(#b7d68e3324)"><path fill="#b5ff00" d="M 478.082031 46.519531 L 444.40625 53.496094 L 573.640625 677.316406 L 607.316406 670.335938 Z M 478.082031 46.519531 " fill-opacity="1" fill-rule="nonzero"/></g></g></g><g clip-path="url(#da68f04fb2)"><g clip-path="url(#66912a4114)"><g clip-path="url(#b3c1942380)"><path fill="#b5ff00" d="M 518.703125 85.296875 L 477.007812 93.933594 L 483.980469 127.609375 L 525.675781 118.976562 Z M 518.703125 85.296875 " fill-opacity="1" fill-rule="nonzero"/></g></g></g><g clip-path="url(#4f41dd9274)"><g clip-path="url(#a0a1b69b39)"><g clip-path="url(#cdd347c2bf)"><path fill="#b5ff00" d="M 564.734375 111.035156 L 527.851562 118.671875 L 535.488281 155.554688 L 572.371094 147.917969 Z M 564.734375 111.035156 " fill-opacity="1" fill-rule="nonzero"/></g></g></g><g clip-path="url(#b3233fa3d5)"><g clip-path="url(#1cf84e4d15)"><g clip-path="url(#b3eaa505cd)"><path fill="#b5ff00" d="M 608.765625 140.558594 L 571.882812 148.195312 L 579.523438 185.078125 L 616.40625 177.441406 Z M 608.765625 140.558594 " fill-opacity="1" fill-rule="nonzero"/></g></g></g><g clip-path="url(#98af1afc96)"><g clip-path="url(#d4594141ab)"><g clip-path="url(#b88446e3e0)"><path fill="#b5ff00" d="M 654.1875 169.453125 L 617.304688 177.09375 L 624.945312 213.976562 L 661.828125 206.335938 Z M 654.1875 169.453125 " fill-opacity="1" fill-rule="nonzero"/></g></g></g><g clip-path="url(#76a78b118c)"><g clip-path="url(#fd61fa0d52)"><g clip-path="url(#e5fb600cd2)"><path fill="#b5ff00" d="M 695.851562 196.097656 L 658.96875 203.734375 L 666.605469 240.617188 L 703.492188 232.980469 Z M 695.851562 196.097656 " fill-opacity="1" fill-rule="nonzero"/></g></g></g><g clip-path="url(#5f7edd2d84)"><g clip-path="url(#f96b2bb1f9)"><g clip-path="url(#8cd391bc2a)"><path fill="#b5ff00" d="M 741.277344 224.984375 L 704.390625 232.625 L 712.035156 269.507812 L 748.917969 261.867188 Z M 741.277344 224.984375 " fill-opacity="1" fill-rule="nonzero"/></g></g></g><g clip-path="url(#e9fcd583ae)"><g clip-path="url(#f0eba8a2bd)"><g clip-path="url(#dd2f098a7a)"><path fill="#b5ff00" d="M 786.09375 254.359375 L 749.207031 262 L 756.851562 298.882812 L 793.734375 291.242188 Z M 786.09375 254.359375 " fill-opacity="1" fill-rule="nonzero"/></g></g></g><g clip-path="url(#0c0d46050a)"><g clip-path="url(#4af36cdb9c)"><g clip-path="url(#5827976bce)"><path fill="#b5ff00" d="M 830.949219 283.6875 L 794.066406 291.332031 L 801.707031 328.214844 L 838.589844 320.574219 Z M 830.949219 283.6875 " fill-opacity="1" fill-rule="nonzero"/></g></g></g><g clip-path="url(#ae1330ff69)"><g clip-path="url(#6896b87792)"><g clip-path="url(#e850670068)"><path fill="#b5ff00" d="M 874.984375 313.207031 L 838.101562 320.847656 L 845.742188 357.734375 L 882.625 350.09375 Z M 874.984375 313.207031 " fill-opacity="1" fill-rule="nonzero"/></g></g></g><g clip-path="url(#80a270a218)"><g clip-path="url(#fdd5c2a334)"><g clip-path="url(#c31f826213)"><path fill="#b5ff00" d="M 823.058594 435.101562 L 786.171875 442.738281 L 801.117188 514.902344 L 838 507.265625 Z M 823.058594 435.101562 " fill-opacity="1" fill-rule="nonzero"/></g></g></g><g clip-path="url(#4cdfb8b0ac)"><g clip-path="url(#7ee3e59bcd)"><g clip-path="url(#549ef86de8)"><path fill="#b5ff00" d="M 765.671875 522.410156 L 728.789062 530.050781 L 743.730469 602.214844 L 780.613281 594.574219 Z M 765.671875 522.410156 " fill-opacity="1" fill-rule="nonzero"/></g></g></g><g clip-path="url(#1b155446bb)"><g clip-path="url(#4a086e8bb2)"><g clip-path="url(#028cf0d63b)"><path fill="#b5ff00" d="M 816.039062 590.363281 L 779.15625 598 L 794.097656 670.164062 L 830.984375 662.527344 Z M 816.039062 590.363281 " fill-opacity="1" fill-rule="nonzero"/></g></g></g><g clip-path="url(#4838737282)"><g clip-path="url(#503a19ab84)"><g clip-path="url(#308dc2a8b8)"><path fill="#b5ff00" d="M 867.785156 650.394531 L 830.902344 658.035156 L 845.851562 730.199219 L 882.738281 722.558594 Z M 867.785156 650.394531 " fill-opacity="1" fill-rule="nonzero"/></g></g></g><g clip-path="url(#a473dd4487)"><g clip-path="url(#63ac662e51)"><g clip-path="url(#50f683ca80)"><path fill="#b5ff00" d="M 874.875 499.804688 L 837.992188 507.441406 L 852.933594 579.605469 L 889.816406 571.96875 Z M 874.875 499.804688 " fill-opacity="1" fill-rule="nonzero"/></g></g></g><g clip-path="url(#affad6c38c)"><g clip-path="url(#a60822f217)"><g clip-path="url(#751d936eeb)"><path fill="#b5ff00" d="M 927.628906 567.140625 L 890.746094 574.78125 L 905.695312 646.945312 L 942.582031 639.304688 Z M 927.628906 567.140625 " fill-opacity="1" fill-rule="nonzero"/></g></g></g><g clip-path="url(#7bfc723cdd)"><g clip-path="url(#96ed3c5f32)"><g clip-path="url(#1fb16cd414)"><path fill="#b5ff00" d="M 979.050781 632.070312 L 942.164062 639.710938 L 957.109375 711.875 L 993.992188 704.234375 Z M 979.050781 632.070312 " fill-opacity="1" fill-rule="nonzero"/></g></g></g><g clip-path="url(#d67d373bb9)"><g clip-path="url(#7c479d8886)"><g clip-path="url(#3cd56de47a)"><path fill="#b5ff00" d="M 919.816406 342.558594 L 882.933594 350.199219 L 890.574219 387.082031 L 927.460938 379.441406 Z M 919.816406 342.558594 " fill-opacity="1" fill-rule="nonzero"/></g></g></g><g clip-path="url(#ff11fc4f9b)"><g clip-path="url(#8d850098b1)"><g clip-path="url(#8e8031a6a6)"><path fill="#b5ff00" d="M 960.273438 369.566406 L 778.257812 407.253906 L 785.894531 444.136719 L 967.910156 406.449219 Z M 960.273438 369.566406 " fill-opacity="1" fill-rule="nonzero"/></g></g></g><g clip-path="url(#c9c65e0f5a)"><g clip-path="url(#41e09e4cf0)"><g clip-path="url(#0b023c2de7)"><path fill="#b5ff00" d="M 628.625 589.664062 L 591.742188 597.304688 L 599.378906 634.1875 L 636.261719 626.550781 Z M 628.625 589.664062 " fill-opacity="1" fill-rule="nonzero"/></g></g></g><g clip-path="url(#35ac61463f)"><g clip-path="url(#644ee647bd)"><g clip-path="url(#2638197886)"><path fill="#b5ff00" d="M 654.417969 544.621094 L 617.53125 552.265625 L 625.171875 589.148438 L 662.058594 581.507812 Z M 654.417969 544.621094 " fill-opacity="1" fill-rule="nonzero"/></g></g></g><g clip-path="url(#75e12c8e31)"><g clip-path="url(#a220553111)"><g clip-path="url(#1332e3fdf8)"><path fill="#b5ff00" d="M 683.503906 500.847656 L 646.621094 508.484375 L 654.257812 545.367188 L 691.140625 537.730469 Z M 683.503906 500.847656 " fill-opacity="1" fill-rule="nonzero"/></g></g></g><g clip-path="url(#17c1cafc0f)"><g clip-path="url(#39c84d0717)"><g clip-path="url(#8e4c7d12cf)"><path fill="#b5ff00" d="M 713.960938 458.683594 L 677.078125 466.324219 L 691.695312 536.886719 L 728.582031 529.242188 Z M 713.960938 458.683594 " fill-opacity="1" fill-rule="nonzero"/></g></g></g><g clip-path="url(#ee41e3c570)"><g clip-path="url(#6ed203a489)"><g clip-path="url(#fc684a8fdb)"><path fill="#b5ff00" d="M 963.785156 749.863281 L 956.144531 712.980469 L 883.980469 727.929688 L 891.621094 764.8125 Z M 963.785156 749.863281 " fill-opacity="1" fill-rule="nonzero"/></g></g></g></svg>