<?xml version="1.0" encoding="UTF-8"?>
<svg id="Layer_2" data-name="Layer 2" xmlns="http://www.w3.org/2000/svg" viewBox="0 0 1601.96 141.73">
  <defs>
    <style>
      .cls-1 {
        fill: #010101;
      }

      .cls-2 {
        fill: #231f20;
      }

      .cls-3 {
        fill: #e02227;
      }

      .cls-4 {
        fill: #fff;
      }

      .cls-5 {
        fill: #df1f26;
      }

      .cls-6 {
        fill: #f5aa91;
      }

      .cls-7 {
        fill: #e72328;
      }

      .cls-8 {
        fill: #f08469;
      }

      .cls-9 {
        fill: #939598;
      }

      .cls-10 {
        fill: #a7a9ac;
      }
    </style>
  </defs>
  <g id="colores">
    <g>
      <path class="cls-9" d="M624.72,78.23s0,.06,0,.15c0-.09,0-.15,0-.15Z"/>
      <g>
        <path class="cls-10" d="M564.5,121.44c-1.87-1.04-3.25-2.52-3.25-2.52-.74-.8-1.13-1.4-1.13-1.4-1.75-3.16-1.72-6.6-1.34-9.99,1.12-9.63,11.36-31.58,11.6-32.06,2.3-4.44,4.56-8.9,6.73-13.4,3.32-6.9,6.02-14.03,7.31-21.61,1.4-8.29-.05-15.74-6.85-21.44-9.55-8-22.59-3.93-25.96,8.11-1.39,4.92-1.1,9.91-.28,14.87,1.42,8.53,4.63,16.44,8.72,23.99.98,1.83,1.24,3.33,0,5.08-.67.95-1.14,2.06-1.71,3.11-3.81,7.08-7.58,14.16-9.51,22.03-1.72,7.01-2.8,11-1.36,15.98,2.74,9.47,11.9,13.85,12.51,14.13,11.7,5.39,24.74-1.49,35.52-7.18,6.45-3.4,16.2-9.59,25.72-20.58-10.5,7.15-19.8,12.32-26.89,15.92,0,0-22.15,11.25-29.85,6.97ZM559.96,60.46c-3.7-8.5-6.41-17.23-5.85-26.66.38-6.22,2.87-11.14,8.81-13.81,4.58-2.06,8.15-.97,10.78,3.32,1.79,2.91,2.31,6.12,2.04,9.47-.24,3.02-.85,5.96-1.73,8.87-2.54,8.35-6.48,16.03-11.14,24.03-1.6-1.85-2.2-3.57-2.91-5.22Z"/>
        <path class="cls-10" d="M560.58,63.16c4.3,7.24,8.72,14.47,13.71,21.26,1.75,2.12,3.29,4.75,5.81,6-.69-.19-1.25-.66-1.78-1.11-3.64-3.35-6.48-7.46-9.41-11.42-3.29-4.59-6.44-9.26-9.51-14.01l1.19-.73h0Z"/>
      </g>
      <g>
        <path class="cls-7" d="M30.39,134.56s-.11-.04-.15-.06l.04-.06c.06.04.09.09.11.13Z"/>
        <path class="cls-4" d="M136.35,80.53c3.84-9.31,6.45-18.91,6.58-31.55.12-3.63-1.09-9.45-3.83-14.92-3.92-8.57-12.98-13.91-22.38-12.57-1.46.18-2.4-.05-3.28-1.52-4.27-7.13-9.79-13.03-17.16-17.09-9.21-5.27-20.21-2.61-28.91,2.42-.85.48-1.64.62-2.59.46-13.61-2.23-27.07,3.51-36.14,13.63-.53.6-1.11.86-1.9.92-1.9.14-3.81.3-5.7.71-6.84,1.45-12.65,4.62-16.7,10.44-6.54,9.72-4.82,22.77-.53,33.07.35.85.41,1.6.18,2.5-5.02,18.55,2.75,39.56,19.36,49.56.79.48,1.22,1.01,1.18,1.96.67,12.04,9.42,26.65,23.35,22.47,3.84-1.11,7.4-2.82,10.74-4.96.86-.56,1.59-.58,2.54-.23,17.75,6.94,37.86-.06,50.86-13.14.76-.78,1.57-1.31,2.61-1.62,3.88-1.18,7.62-2.75,10.97-5.04,5.45-3.7,9.7-8.36,11.08-15.04.97-4.74.42-9.47-.81-14.07-.62-2.28-.42-4.22.48-6.37Z"/>
        <path class="cls-7" d="M117.11,23.72c17.31-1.71,24.78,16.13,23.31,31.15-.63,8.5-3,16.54-6.07,24.43-.09.19-.19.39-.41.86-1.04-2.86-2.06-5.4-3.21-7.87-.18-.39-.16-.76-.12-1.16,1.42-12.5-2.04-25.16-9.7-35.17-.6-.78-1.04-1.59-1.34-2.5-.9-2.87-1.99-5.66-3.33-8.34-.56-1.09-.19-1.32.86-1.39Z"/>
        <path class="cls-2" d="M73.54,121.09c-8.67,1.29-16.69-.77-24.02-5.11,7.59,3.47,15.69,4.87,24.02,5.11Z"/>
        <path class="cls-2" d="M58.98,116.75c-7.43-1.92-13.97-5.4-19.51-10.78-3.26-3.17-5.01-7.13-6.3-11.38-.23-.74-.09-.95.72-.71,2.17.63,4.09,1.46,5.78,3.19,6.72,6.69,17.47,8.87,26.65,7.85.88-.11,1.66.02,2.45.56,17.45,11.71,40.57-3.33,36.15-25.36q-.41-2.27.42-4.66c6.05,16.67-2.71,33.93-18.06,41.5-2.13,1.16-4.55,1.04-6.86,1.27-7.23.72-14.41.35-21.46-1.5Z"/>
        <path class="cls-6" d="M89.01,57.71c-5.18-10.83-20.16-10.17-27.74-3.07-2.35,2.28-5.54,3-7.97,5.08,1.05-12.37,14.47-20.79,26.15-17.44,4.06,1.09,7.28,3.54,9.88,6.74,7.18,8.84,10.04,21.16,4.5,31.69-.34-3.42-1.02-6.37-2.19-9.21-.3-.76-.21-1.53-.19-2.31.11-4.02-.62-7.87-2.43-11.48Z"/>
        <path class="cls-8" d="M56.86,71.18c.18.55.02,1.01-.16,1.5-2.35,6.3-.93,12.01,4,16.58,1.48,1.38,2.03,3.42,3.54,4.87-5.57.74-12.72-3.49-15.45-11.39-3.35-9.68.32-18.02,8.25-22.42-1.34,3.77-1.27,7.32-.19,10.86Z"/>
        <path class="cls-6" d="M60.79,86.01c-2.87-3.39-3.47-7.34-2.29-11.55.41-.11.49.14.67.25,1.06.71,1.53,1.2.35,2.49-1.53,1.69-.46,4.5,1.83,5.22.92.3,1.39.74,1.8,1.6.95,2.06,3.56,2.65,5.43,1.32.3-.23.6-.48.99-.79,1.06,2.91,2.59,4.02,4.71,3.49,2.2-.56,3.03-2.1,2.68-5.08.74.34,1.41.72,2.19.79.76.05,1.45-.21,2.47-.51-3.68,8.28-15.29,9.75-20.83,2.77Z"/>
        <path class="cls-6" d="M81.55,77.09c2.65-.85,3.58-1.78,3.63-3.58.05-1.8-.86-3.05-2.73-3.65-.46-.14-.86-.14-.55-.81,1.66-3.41-2.4-6.59-5.63-4.37-.11.07-.23.11-.41.18-.5-1.72-1.35-3.24-3.3-3.39-1.55-.19-2.89.28-3.67,1.69-.46.86-.79.95-1.66.49-2.67-1.6-6.16,1.27-5.08,4.23.18.62.16.88-.56.88-.62,0-1.23.23-1.69.62-.95.79-1.08.18-1.23-.62-2.6-11.08,9.57-18.62,19.47-16.6,13.04,2.05,14.47,24.09,4.41,30.16.92-2.2.63-3.86-1.01-5.24Z"/>
        <path class="cls-6" d="M68.22,76.28c-.88.81-1.31,1.62-1.8,2.56-.39-1.36-1.09-2.36-2.29-3.02-.34-.18-.14-.42.05-.6.3-.26.58-.55.99-.16.78.74,1.71,1.15,3.05,1.22Z"/>
        <path class="cls-6" d="M68.29,92.64c6.12.79,10.86-1.53,14.39-6.47.72-1.02,1.46-1.98,2.49-2.75,2.12-1.62,3.58-3.77,4.6-6.23.21-.46.41-.93.72-1.71,1.06,3.88,1.39,7.42-.3,10.92-2.75,5.7-7.16,8.91-13.56,9.28-4.04.32-8.25-.07-11-3.54,1.08.21,1.87.42,2.66.51Z"/>
        <path class="cls-8" d="M50.79,59.49c-.16,2.12-1.09,3.69-2.26,5.36-4.29,6.26-4.18,12.96-1.48,19.77,2.84,7.82,10.94,13.03,19.29,12.13.67-.07,1.27.02,1.89.3,3.06,1.24,5.81,1.04,9.17,1.04-1.99,1.59-3.9,2.59-5.98,3.21-10.11,3.07-19.72,1.82-28.27-4.34-9.81-7.07-12.7-20.48-7.37-31.75,3.54-7.21,10.27-11.99,17.76-14.41-1.38,2.79-2.54,5.63-2.75,8.68Z"/>
        <path class="cls-8" d="M73.56,103.12c2.98-1.23,5.59-2.98,7.74-5.4.39-.44.85-.72,1.38-.93,4.32-1.75,7.37-4.81,9.4-8.96.39-.79.83-1.52,1.38-2.2,2.89-3.72,4.6-7.95,5.29-12.59.07-.51.09-1.02.44-1.57,4.66,7.65,5.29,17.48.93,25.4-5.38,9.65-18.99,13.28-28.43,7.62-.14-.09-.25-.23-.49-.42.86-.35,1.62-.62,2.36-.93Z"/>
        <path class="cls-8" d="M99.45,67.71c-.72-.93-.53-2.08-.71-3.14-1.96-13.21-11.01-24.06-22.44-25.36-7.33-.83-14.47,3.43-15.26,3.91-2.29,1.4-3.63,2.75-7.31,4.91-3.71,2.17-6.99,3.53-9.23,4.35,3.38-8.58,7.97-14.47,11.25-16.71,1.9-1.3,4-2.36,6.27-3.15,1.09-.41,2.22-.78,3.32-1.18,2.68-.97,5.34-.35,7.97.14,10.63,2.03,18.78,7.94,25.59,16.14,5.2,6.43,5.73,17.05,4.6,24.92-.05.39-.18.74-.35,1.43-1.11-2.45-2.26-4.44-3.69-6.26Z"/>
        <path class="cls-2" d="M78.48,30.35c7.05.49,15.08,5.48,18.31,11.27-5.2-5.03-11.11-8.87-18.31-11.27Z"/>
        <path class="cls-2" d="M98.85,34.88c-1.31-2.86-3.02-5.47-5.13-7.8-.07-.09-.09-.21-.14-.34,7.42-.6,14.99,3.97,15.26,15.38-2.87-2.61-5.86-4.67-9.15-6.28-.42-.19-.63-.58-.83-.97Z"/>
        <path class="cls-2" d="M96.93,36.24c.23.53.53,1.06.58,1.92-10.24-12.4-27.66-13.12-41.06-5.66-.64.35-1.9.38-3.42.62-3.02.47-5.54.68-7.25.78,12.28-16.38,42.42-18.62,51.15,2.35Z"/>
        <path class="cls-2" d="M50.03,36c.48-.25.95-.35,1.57-.12-5.03,4.69-8.34,10.83-9.82,17.5-.21.88-.62,1.48-1.27,2.03-10.1,8.43-12.6,23.8-6.07,35.11.18.34.48.62.44,1.2-7.82-2.53-12.51-9.77-14.18-17.48-.58-2.47-.3-4.78.44-7.14,4.41-14.61,15.21-24.95,28.89-31.09Z"/>
        <path class="cls-2" d="M20.35,62.08c1.94-14.8,9.05-21.48,21.83-24.71-10.02,6.07-17.35,14.13-21.83,24.71Z"/>
        <path class="cls-2" d="M20.49,81.07c1.9,4.27,4.73,7.76,8.64,10.35.65.44,1.02.97,1.2,1.75.72,2.96,1.69,5.84,3.1,8.55.51.99.28,1.27-.81,1.25-11.17-.21-14.66-13.72-12.8-22.84.55.14.53.6.67.93Z"/>
        <path class="cls-2" d="M104.27,104.88c6.38-10.35,6.86-21.18,2.5-32.36-.41-1.06-.62-2.08-.55-3.26.49-7.71-.83-15.15-3.83-22.26-1.04-2.47-.97-5.15-1.99-7.97,23.51,11.78,20.79,49.97,3.88,66.29-.28-.19-.07-.34-.02-.44Z"/>
        <path class="cls-2" d="M112.75,46.67c-1.09-1.43-1.45-2.84-1.5-4.53-.11-3.79-.97-7.39-2.96-10.67-3.51-5.73-10.58-7.92-16.16-7.13-1.01.14-1.53-.04-2.1-.92-1.08-1.71-2.35-3.32-3.67-5.13,20.73,1.49,38.03,19.4,41.52,39.49,1.71,10.53,0,20.79-4.18,30.63-.41-2.86-.51-5.43-1.46-7.72-2.24-5.41-2.33-11.13-2.93-16.81-.67-6.28-2.73-12.13-6.56-17.21Z"/>
        <path class="cls-7" d="M69.98,6.6c5.98-3.07,12.19-5.15,19.03-3.97,12.76,3.31,21.36,14.78,26.35,26.35.05.11.04.23.07.49-8.59-7.92-18.79-13.41-30.65-13.7-.55-.02-1.01-.12-1.43-.49-3.92-3.6-8.25-6.49-13.33-8.18-.09-.04-.14-.11-.23-.19.07-.11.11-.26.19-.3Z"/>
        <path class="cls-7" d="M44.02,10.95c14.43-7.02,31.94-2.63,41.5,10.28-15.22-5.67-31.14-1.46-41.45,11.09-1.52,1.82-3.16,2.91-5.41,3.62-6.61,2.08-12.42,5.43-16.28,11.94-.23-16.61,4.34-28.57,21.64-36.93Z"/>
        <path class="cls-7" d="M3.09,54.07C-.17,36.98,7.87,24.23,25.64,22.72c.1-.05.27-.11.32-.05.14.15-.53,1-.64,1.15-1.76,2.31-4.67,13.21-4.99,16.31-.12,1.2-.46,2.06-1.43,2.87-5.91,5.01-10.23,11.18-13.1,18.38-.07.19-.18.37-.41.88-1.16-2.86-1.83-5.48-2.31-8.18Z"/>
        <path class="cls-7" d="M22.38,113.19C-.13,97.68-.81,62.72,19.91,45.41c-.18,2.93.64,5.86-.3,8.75-2.01,6.23-2.47,12.57-1.43,19.03.18,1.09.16,2.12-.12,3.21-2.25,9.12-1.41,20.76,6.93,26.6,2.8,1.9,5.94,2.63,9.29,2.31.71-.07,1.13.05,1.52.65,3.63,5.63,8.43,10.02,14.69,13.37-10.21.58-19.75-.11-28.11-6.14Z"/>
        <path class="cls-7" d="M55.48,135.15c-3.49,1.99-6.98,3.49-10.88,4.07-4.83.72-8.47-1.48-11.52-4.78-3.86-4.18-5.36-9.44-6.08-14.96-.11-.76.19-.95.88-.65,3.7,1.6,7.6,2.4,11.6,2.79.51.05.92.26,1.25.62,4.34,4.34,9.14,8.06,14.74,11.04.55.32,1.11.6,1.68.88-.56.34-1.11.67-1.68.99Z"/>
        <path class="cls-7" d="M113.93,116.79c-7.86,10.84-21.44,18.02-34.66,19.26-12.7,1.14-25.1-4.44-34.21-13.02-.32-.28-.71-.51-.9-1.16,2.77-.02,5.43.14,8.06-.28,2.17-.34,4.16.25,6.23.79,14.82,3.93,27.87-.26,39.47-9.7,12.73-6.21,19-19.99,21.34-33.3.44.14.41.55.49.85,3.46,13.05,2.06,25.34-5.82,36.56Z"/>
        <path class="cls-7" d="M129.17,110c-3.6,3.74-8.01,6.21-12.89,8.01-.16-.53.21-.78.41-1.06,4.43-6.63,6.77-13.95,7.13-21.9.02-.42.05-.9.23-1.27,2.56-5.43,4.53-11.09,5.93-16.98,4.3,10.4,8.42,24.28-.79,33.21Z"/>
      </g>
      <g>
        <path class="cls-10" d="M275.36,95.25c-2.82,9.4-7.21,18.03-16.62,25.55-9.56,7.53-21,10.03-33.54,10.03-16.62,0-31.04-6.58-40.29-18.5-9.09-11.76-13.01-25.39-13.01-40.28s3.6-29.47,12.85-40.6c10.03-12.23,24.14-18.18,40.44-18.18,13.01,0,24.14,2.66,33.39,10.19,10.19,8.15,15.05,17.71,17.56,28.53l-21.32,2.98c-1.1-3.76-2.82-7.37-5.17-10.34-5.64-7.53-13.32-11.13-23.04-11.29-9.72-.16-19.12,3.76-24.61,11.29-5.8,7.37-7.84,17.56-7.68,27.43.16,9.87,1.88,19.91,7.68,27.43,5.49,7.52,14.89,11.13,24.61,11.28,9.72.16,17.4-3.76,23.04-11.28,2.04-2.82,3.76-5.96,4.86-9.41l20.85,5.17Z"/>
        <path class="cls-10" d="M341.04,104.97h-42.48l-7.21,23.51h-21.95l34.49-112.86h31.82l34.49,112.86h-21.95l-7.21-23.51ZM334.77,85.06l-15.21-49.38-15.05,49.38h30.25Z"/>
        <path class="cls-2" d="M487.38,128.48h-19.91V61.08l-32.76,67.4h-7.52l-32.76-67.25v67.25h-19.91V15.62h19.12l37.31,74.93,37.31-74.93h19.12v112.86Z"/>
        <path class="cls-2" d="M489.86,35.53v24.14h42.95v19.91h-42.95v29h52.35v19.91h-73.67V15.62h73.67v19.91h-52.35Z"/>
      </g>
      <g>
        <path class="cls-3" d="M646.49,15.62v112.86h-21.32V15.62h21.32Z"/>
        <path class="cls-3" d="M722.36,104.97h-42.48l-7.21,23.51h-21.95l34.49-112.86h31.82l34.49,112.86h-21.95l-7.21-23.51ZM716.09,85.06l-15.21-49.38-15.05,49.38h30.25Z"/>
      </g>
    </g>
    <g>
      <path class="cls-1" d="M861.75,52.27c-.48,1.79-1.27,3.46-2.59,4.97-2.31,2.86-5.77,4.18-9.63,4.18s-7.56-1.39-9.91-4.54c-2.23-2.98-3.14-6.96-3.06-10.39.08-3.66.76-7.4,3.06-10.39,2.35-3.06,5.93-4.54,9.91-4.54s7.36,1.39,9.63,4.22c1.47,1.67,2.31,3.62,2.79,5.69l-2.39.36c-.36-1.55-.99-3.03-1.95-4.26-1.95-2.63-4.78-3.7-8.04-3.74-3.1-.04-6.13,1.19-8.04,3.7-1.95,2.51-2.55,5.73-2.55,8.95.04,3.18.44,6.21,2.55,8.99,1.87,2.55,4.78,3.66,8.04,3.7,3.18.04,6.21-1.27,8.04-3.74.84-1.15,1.47-2.43,1.83-3.82l2.31.64Z"/>
      <path class="cls-1" d="M882.77,60.83v-3.7c-1.87,3.06-4.97,4.3-8.75,4.3-4.02,0-7.04-2.47-7.04-6.45,0-2.71,1.11-4.46,3.78-5.89,2.63-1.35,6.73-1.67,11.7-2.47.04-3.94-2.59-5.65-5.89-5.65-2.35,0-4.54.4-6.53,3.02l-1.63-1.55c2.19-2.83,5.13-3.7,8.48-3.7,2.07,0,4.1.72,5.45,1.95,1.95,1.63,2.51,4.3,2.51,6.81v13.33h-2.07ZM882.53,48.69c-4.1.6-6.77,1-7.92,1.27-2.94.64-5.29,2.27-5.29,4.77,0,2.79,2.07,4.54,4.97,4.54,3.34,0,5.97-1.31,7.32-3.94.92-1.75.92-3.46.92-6.65ZM881.49,33.01l-.8-1.83-8.52,3.74.8,1.79,8.52-3.7Z"/>
      <path class="cls-1" d="M896.66,53.31c0,1.83-.12,2.9.44,3.86.44,1.04,1.51,1.63,2.67,1.75,1.15.12,2.47.04,3.58-.16v2.07c-1.35.32-2.9.36-4.22.2-1.87-.28-3.3-1.07-4.1-2.71-.76-1.47-.68-2.95-.68-4.94v-11.98h-4.82v-2.07h4.82v-5.97h2.31v5.97h6.69v2.07h-6.69v11.9Z"/>
      <path class="cls-1" d="M911.66,56.53c1.31,1.75,3.5,2.67,5.77,2.67,1.63,0,3.1-.36,4.42-1.15,1.19-.8,2.19-1.87,2.91-3.34l2.07.91c-.92,2.03-2.31,3.5-3.9,4.42-1.63.95-3.54,1.39-5.41,1.39-3.02,0-5.93-1.19-7.72-3.5-1.75-2.27-2.35-5.13-2.35-7.8s.6-5.65,2.35-7.92c1.87-2.35,4.62-3.46,7.64-3.46s5.69,1.11,7.56,3.42c1.79,2.31,2.35,5.41,2.27,8.56h-17.35c.08,2.11.56,4.22,1.75,5.81ZM909.95,48.65h14.88c-.16-1.99-.56-3.74-1.63-5.13-1.31-1.71-3.5-2.63-5.77-2.59-2.23-.04-4.42.84-5.77,2.63-1.07,1.43-1.55,3.22-1.71,5.09Z"/>
      <path class="cls-1" d="M952.02,32.18v28.65h-2.07v-3.7c-.12.2-.24.4-.36.56-1.67,2.43-4.3,3.74-7.4,3.74s-5.65-1.19-7.44-3.5c-1.79-2.27-2.31-5.13-2.31-7.88s.56-5.61,2.31-7.84c1.67-2.23,4.34-3.46,7.24-3.46s5.93,1.31,7.6,3.66l.12.16v-10.39h2.31ZM949.95,50.04c0-2.39-.48-4.78-1.83-6.49-1.31-1.79-3.46-2.63-5.73-2.63s-4.46.88-5.77,2.67c-1.31,1.71-1.75,4.1-1.75,6.45s.44,4.74,1.75,6.45c1.31,1.79,3.5,2.75,5.73,2.75s4.46-.91,5.77-2.67c1.35-1.71,1.83-4.14,1.83-6.53Z"/>
      <path class="cls-1" d="M971.36,39.1v2.23c-.84-.28-1.79-.44-2.83-.4-1.75,0-3.38.6-4.46,1.67-2.11,1.87-2.27,4.3-2.27,7.32v10.9h-2.31v-21.49h2.11v3.22c.4-.64.95-1.27,1.63-1.87,1.47-1.31,3.46-1.95,5.41-1.95.96,0,1.83.12,2.71.36Z"/>
      <path class="cls-1" d="M990.67,60.83v-3.7c-1.87,3.06-4.97,4.3-8.76,4.3-4.02,0-7.04-2.47-7.04-6.45,0-2.71,1.11-4.46,3.78-5.89,2.63-1.35,6.73-1.67,11.7-2.47.04-3.94-2.59-5.65-5.89-5.65-2.35,0-4.54.4-6.53,3.02l-1.63-1.55c2.19-2.83,5.13-3.7,8.48-3.7,2.07,0,4.1.72,5.45,1.95,1.95,1.63,2.51,4.3,2.51,6.81v13.33h-2.07ZM990.43,48.69c-4.1.6-6.77,1-7.92,1.27-2.94.64-5.29,2.27-5.29,4.77,0,2.79,2.07,4.54,4.97,4.54,3.34,0,5.97-1.31,7.32-3.94.92-1.75.92-3.46.92-6.65Z"/>
      <path class="cls-1" d="M1031.82,50.64c0,2.39-.92,4.97-2.43,6.85-2.03,2.59-5.33,3.98-8.64,3.94-3.22.04-6.57-1.39-8.6-3.94-1.51-1.79-2.47-4.54-2.47-6.85v-18.47h2.31v16.71c0,2.95.04,4.7,1.95,7.12,1.63,2.07,4.22,3.26,6.81,3.26s5.21-1.19,6.84-3.26c1.83-2.27,1.91-4.18,1.91-7.12v-16.71h2.31v18.47Z"/>
      <path class="cls-1" d="M1055.62,39.98c-.76-2.03-1.95-3.78-3.78-4.9-1.27-.8-3.06-1.27-4.7-1.27s-3.18.28-4.42.95c-1.55.84-2.59,2.51-2.59,4.18,0,1.11.4,2.23,1.19,3.03.99.99,2.59,1.63,4.22,2.15l5.17,1.51c1.91.56,3.74,1.39,5.13,2.75,1.35,1.31,2.23,3.22,2.19,5.13,0,2.31-1.23,4.66-3.14,6.01-1.91,1.43-4.62,1.91-7.2,1.91-3.66,0-6.33-1.11-8.68-3.62-1.27-1.35-2.07-3.26-2.43-4.78l2.31-.72c.32,1.35.76,2.55,2.03,4.02,1.51,1.79,4.06,2.86,6.85,2.86,2.03,0,4.34-.52,5.77-1.55,1.43-1,2.07-2.67,2.07-4.22,0-1.31-.52-2.47-1.43-3.38-1.03-1.07-2.43-1.71-4.06-2.19l-5.21-1.55c-1.83-.6-3.7-1.23-5.25-2.63-1.35-1.27-1.95-3.18-1.95-4.86,0-2.47,1.67-4.86,3.9-6.05,1.75-.95,3.66-1.19,5.49-1.19,2.07,0,4.26.48,5.93,1.51,2.27,1.39,3.9,3.58,4.86,6.25l-2.27.64Z"/>
      <path class="cls-1" d="M1088.02,52.27c-.48,1.79-1.27,3.46-2.59,4.97-2.31,2.86-5.77,4.18-9.63,4.18s-7.56-1.39-9.91-4.54c-2.23-2.98-3.14-6.96-3.06-10.39.08-3.66.76-7.4,3.06-10.39,2.35-3.06,5.93-4.54,9.91-4.54s7.36,1.39,9.63,4.22c1.47,1.67,2.31,3.62,2.79,5.69l-2.39.36c-.36-1.55-.99-3.03-1.95-4.26-1.95-2.63-4.78-3.7-8.04-3.74-3.1-.04-6.13,1.19-8.04,3.7-1.95,2.51-2.55,5.73-2.55,8.95.04,3.18.44,6.21,2.55,8.99,1.87,2.55,4.78,3.66,8.04,3.7,3.18.04,6.21-1.27,8.04-3.74.84-1.15,1.47-2.43,1.83-3.82l2.31.64Z"/>
      <path class="cls-1" d="M1105.97,45.47v2.07h-11.94v-2.07h11.94Z"/>
      <path class="cls-1" d="M1132.68,40.93c0,2.23-.92,4.38-2.35,5.93-1.59,1.75-4.02,2.79-6.45,2.79h-8.52v11.18h-2.31v-28.65h10.82c2.39,0,4.54.95,6.05,2.39,1.75,1.67,2.71,3.94,2.75,6.37ZM1130.25,40.93c-.04-1.75-.72-3.46-1.91-4.7-1.11-1.11-2.79-1.83-4.46-1.83h-8.52v13.01h8.52c1.83,0,3.66-.88,4.85-2.31.96-1.15,1.55-2.67,1.51-4.18Z"/>
      <path class="cls-1" d="M1138.57,60.83v-29.25h2.31v29.25h-2.31Z"/>
      <path class="cls-1" d="M1151.38,56.53c1.31,1.75,3.5,2.67,5.77,2.67,1.63,0,3.1-.36,4.42-1.15,1.19-.8,2.19-1.87,2.9-3.34l2.07.91c-.92,2.03-2.31,3.5-3.9,4.42-1.63.95-3.54,1.39-5.41,1.39-3.02,0-5.93-1.19-7.72-3.5-1.75-2.27-2.35-5.13-2.35-7.8s.6-5.65,2.35-7.92c1.87-2.35,4.62-3.46,7.64-3.46s5.69,1.11,7.56,3.42c1.79,2.31,2.35,5.41,2.27,8.56h-17.35c.08,2.11.56,4.22,1.75,5.81ZM1149.67,48.65h14.88c-.16-1.99-.56-3.74-1.63-5.13-1.31-1.71-3.5-2.63-5.77-2.59-2.23-.04-4.42.84-5.77,2.63-1.07,1.43-1.55,3.22-1.71,5.09Z"/>
      <path class="cls-1" d="M1181.43,49.97l8.6,10.86h-2.86l-7.08-9.11-7.08,9.11h-2.87l8.6-10.86-8.4-10.63h2.83l6.92,8.87,6.92-8.87h2.83l-8.4,10.63Z"/>
      <path class="cls-1" d="M1212.79,39.34v21.49h-2.11v-3.22c-.36.52-.76,1.03-1.23,1.51-1.43,1.39-3.42,2.11-5.33,2.19-1.99.16-4.06-.24-5.81-1.51-3.1-2.27-3.66-6.05-3.58-9.99v-10.47h2.31v10.43c0,3.58.36,6.49,2.79,8.24,1.23.84,2.75,1.19,4.34,1.11,1.51-.08,2.95-.6,3.98-1.55,1.11-.95,1.79-2.39,2.07-3.9.24-1.07.28-2.23.28-3.38v-10.94h2.31Z"/>
      <path class="cls-1" d="M1234.21,45.51c-1.15-3.1-3.66-4.58-6.73-4.62-2.86-.08-5.61,1.23-5.61,3.46,0,1.99,1.43,2.83,3.82,3.5,1.07.32,2.51.72,4.5,1.23,3.46.91,6.29,2.9,6.29,6.21,0,1.71-1.03,3.66-2.63,4.66-1.67,1.11-3.86,1.43-5.97,1.43-2.35,0-4.46-.52-6.41-2.23-1.07-.95-1.95-2.31-2.39-3.5l2.15-.8c.44,1.04.96,1.91,1.87,2.71,1.19,1.11,2.95,1.67,4.74,1.67,1.67,0,3.62-.36,4.78-1.11.99-.68,1.55-1.75,1.55-2.94,0-2.31-2.15-3.18-4.74-3.94l-4.18-1.23c-1.35-.4-2.83-.84-4.06-1.91-1.15-1-1.59-2.43-1.59-3.7,0-2.11,1.47-3.98,3.38-4.82,1.51-.68,3.06-.88,4.58-.84,1.51,0,3.1.32,4.5,1.04,2.03,1.03,3.86,3.18,4.42,5.17l-2.27.56Z"/>
      <path class="cls-1" d="M1271.1,32.18v28.65h-2.07v-3.7c-.12.2-.24.4-.36.56-1.67,2.43-4.3,3.74-7.4,3.74s-5.65-1.19-7.44-3.5c-1.79-2.27-2.31-5.13-2.31-7.88s.56-5.61,2.31-7.84c1.67-2.23,4.34-3.46,7.24-3.46s5.93,1.31,7.6,3.66l.12.16v-10.39h2.31ZM1269.03,50.04c0-2.39-.48-4.78-1.83-6.49-1.31-1.79-3.46-2.63-5.73-2.63s-4.46.88-5.77,2.67c-1.31,1.71-1.75,4.1-1.75,6.45s.44,4.74,1.75,6.45c1.31,1.79,3.5,2.75,5.73,2.75s4.46-.91,5.77-2.67c1.35-1.71,1.83-4.14,1.83-6.53Z"/>
      <path class="cls-1" d="M1281.61,56.53c1.31,1.75,3.5,2.67,5.77,2.67,1.63,0,3.1-.36,4.42-1.15,1.19-.8,2.19-1.87,2.9-3.34l2.07.91c-.92,2.03-2.31,3.5-3.9,4.42-1.63.95-3.54,1.39-5.41,1.39-3.02,0-5.93-1.19-7.72-3.5-1.75-2.27-2.35-5.13-2.35-7.8s.6-5.65,2.35-7.92c1.87-2.35,4.62-3.46,7.64-3.46s5.69,1.11,7.56,3.42c1.79,2.31,2.35,5.41,2.27,8.56h-17.35c.08,2.11.56,4.22,1.75,5.81ZM1279.9,48.65h14.88c-.16-1.99-.56-3.74-1.63-5.13-1.31-1.71-3.5-2.63-5.77-2.59-2.23-.04-4.42.84-5.77,2.63-1.07,1.43-1.55,3.22-1.71,5.09Z"/>
      <path class="cls-5" d="M1318.59,32.18v28.65h-4.78v-28.65h4.78Z"/>
      <path class="cls-5" d="M1342.66,54.62h-11.3l-1.95,6.21h-4.93l9.03-28.65h7.04l9.03,28.65h-4.93l-1.99-6.21ZM1341.23,50.12l-4.26-13.29-4.18,13.29h8.44Z"/>
      <path class="cls-1" d="M1379.56,60.83v-3.7c-1.87,3.06-4.97,4.3-8.75,4.3-4.02,0-7.04-2.47-7.04-6.45,0-2.71,1.11-4.46,3.78-5.89,2.63-1.35,6.73-1.67,11.7-2.47.04-3.94-2.59-5.65-5.89-5.65-2.35,0-4.54.4-6.53,3.02l-1.63-1.55c2.19-2.83,5.13-3.7,8.48-3.7,2.07,0,4.1.72,5.45,1.95,1.95,1.63,2.51,4.3,2.51,6.81v13.33h-2.07ZM1379.32,48.69c-4.1.6-6.76,1-7.92,1.27-2.95.64-5.29,2.27-5.29,4.77,0,2.79,2.07,4.54,4.97,4.54,3.34,0,5.97-1.31,7.32-3.94.92-1.75.92-3.46.92-6.65Z"/>
      <path class="cls-1" d="M1408.33,50.04c0,2.75-.56,5.61-2.31,7.88-1.83,2.31-4.5,3.5-7.48,3.5s-5.73-1.31-7.4-3.74l-.12-.16v12.85h-2.31v-31.04h2.11v3.54l.32-.48c1.71-2.35,4.58-3.66,7.6-3.66s5.57,1.23,7.28,3.46c1.71,2.23,2.31,5.13,2.31,7.84ZM1405.87,50.04c0-2.35-.44-4.74-1.75-6.45-1.31-1.79-3.46-2.67-5.77-2.67s-4.42.84-5.73,2.63c-1.31,1.71-1.79,4.1-1.79,6.49s.48,4.81,1.79,6.53c1.31,1.75,3.5,2.67,5.77,2.67s4.42-.95,5.73-2.75c1.35-1.71,1.75-4.1,1.75-6.45Z"/>
      <path class="cls-1" d="M1414.63,60.83v-29.25h2.31v29.25h-2.31Z"/>
      <path class="cls-1" d="M1427.12,32.41v2.9h-2.31v-2.9h2.31ZM1427.12,39.34v21.49h-2.31v-21.49h2.31Z"/>
      <path class="cls-1" d="M1450.36,45.19c-.52-1.23-1.51-2.47-2.63-3.14-1.15-.76-2.55-1.07-3.94-1.07-2.31,0-4.46.88-5.73,2.67-1.35,1.75-1.79,4.1-1.79,6.45s.44,4.7,1.79,6.45c1.27,1.75,3.42,2.67,5.73,2.67,1.39,0,2.83-.36,3.98-1.07s1.95-1.79,2.55-3.06l2.27.8c-.76,1.63-1.87,3.14-3.34,4.06-1.59,1.03-3.38,1.51-5.45,1.51-3.14,0-5.81-1.11-7.64-3.46-1.79-2.31-2.31-5.17-2.35-7.88.04-2.75.56-5.57,2.35-7.88,1.87-2.39,4.5-3.46,7.64-3.46,1.99,0,3.7.4,5.29,1.35,1.55,1,2.9,2.51,3.5,4.3l-2.23.8Z"/>
      <path class="cls-1" d="M1473.17,60.83v-3.7c-1.87,3.06-4.97,4.3-8.75,4.3-4.02,0-7.04-2.47-7.04-6.45,0-2.71,1.11-4.46,3.78-5.89,2.63-1.35,6.73-1.67,11.7-2.47.04-3.94-2.59-5.65-5.89-5.65-2.35,0-4.54.4-6.53,3.02l-1.63-1.55c2.19-2.83,5.13-3.7,8.48-3.7,2.07,0,4.1.72,5.45,1.95,1.95,1.63,2.51,4.3,2.51,6.81v13.33h-2.07ZM1472.93,48.69c-4.1.6-6.76,1-7.92,1.27-2.95.64-5.29,2.27-5.29,4.77,0,2.79,2.07,4.54,4.97,4.54,3.34,0,5.97-1.31,7.32-3.94.92-1.75.92-3.46.92-6.65Z"/>
      <path class="cls-1" d="M1500.75,32.18v28.65h-2.07v-3.7c-.12.2-.24.4-.36.56-1.67,2.43-4.3,3.74-7.4,3.74s-5.65-1.19-7.44-3.5c-1.79-2.27-2.31-5.13-2.31-7.88s.56-5.61,2.31-7.84c1.67-2.23,4.34-3.46,7.24-3.46s5.93,1.31,7.6,3.66l.12.16v-10.39h2.31ZM1498.68,50.04c0-2.39-.48-4.78-1.83-6.49-1.31-1.79-3.46-2.63-5.73-2.63s-4.46.88-5.77,2.67c-1.31,1.71-1.75,4.1-1.75,6.45s.44,4.74,1.75,6.45c1.31,1.79,3.5,2.75,5.73,2.75s4.46-.91,5.77-2.67c1.35-1.71,1.83-4.14,1.83-6.53Z"/>
      <path class="cls-1" d="M1522.84,60.83v-3.7c-1.87,3.06-4.97,4.3-8.75,4.3-4.02,0-7.04-2.47-7.04-6.45,0-2.71,1.11-4.46,3.78-5.89,2.63-1.35,6.73-1.67,11.7-2.47.04-3.94-2.59-5.65-5.89-5.65-2.35,0-4.54.4-6.53,3.02l-1.63-1.55c2.19-2.83,5.13-3.7,8.48-3.7,2.07,0,4.1.72,5.45,1.95,1.95,1.63,2.51,4.3,2.51,6.81v13.33h-2.07ZM1522.6,48.69c-4.1.6-6.76,1-7.92,1.27-2.95.64-5.29,2.27-5.29,4.77,0,2.79,2.07,4.54,4.97,4.54,3.34,0,5.97-1.31,7.32-3.94.92-1.75.92-3.46.92-6.65Z"/>
      <path class="cls-1" d="M1556.47,60.83v-3.7c-1.87,3.06-4.97,4.3-8.75,4.3-4.02,0-7.04-2.47-7.04-6.45,0-2.71,1.11-4.46,3.78-5.89,2.63-1.35,6.73-1.67,11.7-2.47.04-3.94-2.59-5.65-5.89-5.65-2.35,0-4.54.4-6.53,3.02l-1.63-1.55c2.19-2.83,5.13-3.7,8.48-3.7,2.07,0,4.1.72,5.45,1.95,1.95,1.63,2.51,4.3,2.51,6.81v13.33h-2.07ZM1556.23,48.69c-4.1.6-6.76,1-7.92,1.27-2.95.64-5.29,2.27-5.29,4.77,0,2.79,2.07,4.54,4.97,4.54,3.34,0,5.97-1.31,7.32-3.94.92-1.75.92-3.46.92-6.65Z"/>
      <path class="cls-1" d="M1575.5,60.83v-29.25h2.31v29.25h-2.31Z"/>
      <path class="cls-1" d="M1599.89,60.83v-3.7c-1.87,3.06-4.97,4.3-8.75,4.3-4.02,0-7.04-2.47-7.04-6.45,0-2.71,1.11-4.46,3.78-5.89,2.63-1.35,6.73-1.67,11.7-2.47.04-3.94-2.59-5.65-5.89-5.65-2.35,0-4.54.4-6.53,3.02l-1.63-1.55c2.19-2.83,5.13-3.7,8.48-3.7,2.07,0,4.1.72,5.45,1.95,1.95,1.63,2.51,4.3,2.51,6.81v13.33h-2.07ZM1599.66,48.69c-4.1.6-6.76,1-7.92,1.27-2.95.64-5.29,2.27-5.29,4.77,0,2.79,2.07,4.54,4.97,4.54,3.34,0,5.97-1.31,7.32-3.94.92-1.75.92-3.46.92-6.65Z"/>
      <path class="cls-1" d="M865.45,109.91h-2.23v-23.36l-10.66,23.4h-1.91l-10.66-23.36v23.36h-2.23v-28.65h2.15l11.7,25.35,11.66-25.35h2.19v28.61Z"/>
      <path class="cls-1" d="M875.96,105.66c1.31,1.75,3.5,2.67,5.77,2.67,1.63,0,3.1-.36,4.42-1.15,1.19-.8,2.19-1.87,2.91-3.34l2.07.91c-.92,2.03-2.31,3.5-3.9,4.42-1.63.95-3.54,1.39-5.41,1.39-3.02,0-5.93-1.19-7.72-3.5-1.75-2.27-2.35-5.13-2.35-7.8s.6-5.65,2.35-7.92c1.87-2.35,4.62-3.46,7.64-3.46s5.69,1.11,7.56,3.42c1.79,2.31,2.35,5.41,2.27,8.56h-17.35c.08,2.11.56,4.22,1.75,5.81ZM874.25,97.78h14.88c-.16-1.99-.56-3.74-1.63-5.13-1.31-1.71-3.5-2.63-5.77-2.59-2.23-.04-4.42.84-5.77,2.63-1.07,1.43-1.55,3.22-1.71,5.09Z"/>
      <path class="cls-1" d="M916.32,81.3v28.65h-2.07v-3.7c-.12.2-.24.4-.36.56-1.67,2.43-4.3,3.74-7.4,3.74s-5.65-1.19-7.44-3.5c-1.79-2.27-2.31-5.13-2.31-7.88s.56-5.61,2.31-7.84c1.67-2.23,4.34-3.46,7.24-3.46s5.93,1.31,7.6,3.66l.12.16v-10.39h2.31ZM914.25,99.17c0-2.39-.48-4.78-1.83-6.49-1.31-1.79-3.46-2.63-5.73-2.63s-4.46.88-5.77,2.67c-1.31,1.71-1.75,4.1-1.75,6.45s.44,4.74,1.75,6.45c1.31,1.79,3.5,2.75,5.73,2.75s4.46-.91,5.77-2.67c1.35-1.71,1.83-4.14,1.83-6.53Z"/>
      <path class="cls-1" d="M926.51,81.54v2.9h-2.31v-2.9h2.31ZM926.51,88.46v21.49h-2.31v-21.49h2.31Z"/>
      <path class="cls-1" d="M949.75,94.32c-.52-1.23-1.51-2.47-2.63-3.14-1.15-.76-2.55-1.07-3.94-1.07-2.31,0-4.46.88-5.73,2.67-1.35,1.75-1.79,4.1-1.79,6.45s.44,4.7,1.79,6.45c1.27,1.75,3.42,2.67,5.73,2.67,1.39,0,2.83-.36,3.98-1.07,1.15-.72,1.95-1.79,2.55-3.06l2.27.8c-.76,1.63-1.87,3.14-3.34,4.06-1.59,1.03-3.38,1.51-5.45,1.51-3.14,0-5.81-1.11-7.64-3.46-1.79-2.31-2.31-5.17-2.35-7.88.04-2.75.56-5.57,2.35-7.88,1.87-2.39,4.5-3.46,7.64-3.46,1.99,0,3.7.4,5.29,1.35,1.55,1,2.9,2.51,3.5,4.3l-2.23.8Z"/>
      <path class="cls-1" d="M960.14,81.54v2.9h-2.31v-2.9h2.31ZM960.14,88.46v21.49h-2.31v-21.49h2.31Z"/>
      <path class="cls-1" d="M986.09,99.49v10.47h-2.31v-10.43c0-3.58-.36-6.49-2.79-8.24-1.23-.84-2.75-1.19-4.34-1.11-1.51.08-2.94.56-3.98,1.55-1.11.95-1.79,2.39-2.07,3.9-.24,1.07-.28,2.19-.28,3.38v10.94h-2.27v-21.49h2.07v3.22c.36-.52.76-1.04,1.23-1.51,1.43-1.39,3.42-2.11,5.33-2.19,1.99-.16,4.1.24,5.81,1.51,3.1,2.27,3.66,6.05,3.58,9.99Z"/>
      <path class="cls-1" d="M1007.78,109.95v-3.7c-1.87,3.06-4.97,4.3-8.75,4.3-4.02,0-7.04-2.47-7.04-6.45,0-2.71,1.11-4.46,3.78-5.89,2.63-1.35,6.73-1.67,11.7-2.47.04-3.94-2.59-5.65-5.89-5.65-2.35,0-4.54.4-6.53,3.02l-1.63-1.55c2.19-2.83,5.13-3.7,8.48-3.7,2.07,0,4.1.72,5.45,1.95,1.95,1.63,2.51,4.3,2.51,6.81v13.33h-2.07ZM1007.54,97.82c-4.1.6-6.76,1-7.92,1.27-2.95.64-5.29,2.27-5.29,4.77,0,2.79,2.07,4.54,4.97,4.54,3.34,0,5.97-1.31,7.32-3.94.92-1.75.92-3.46.92-6.65Z"/>
      <path class="cls-1" d="M1046.43,90.06c0,2.23-.92,4.38-2.35,5.93-1.59,1.75-4.02,2.79-6.45,2.79h-8.52v11.18h-2.31v-28.65h10.82c2.39,0,4.54.95,6.05,2.39,1.75,1.67,2.71,3.94,2.75,6.37ZM1044,90.06c-.04-1.75-.72-3.46-1.91-4.7-1.11-1.11-2.79-1.83-4.46-1.83h-8.52v13.01h8.52c1.83,0,3.66-.88,4.85-2.31.96-1.15,1.55-2.67,1.51-4.18Z"/>
      <path class="cls-1" d="M1055.26,105.66c1.31,1.75,3.5,2.67,5.77,2.67,1.63,0,3.1-.36,4.42-1.15,1.19-.8,2.19-1.87,2.9-3.34l2.07.91c-.92,2.03-2.31,3.5-3.9,4.42-1.63.95-3.54,1.39-5.41,1.39-3.02,0-5.93-1.19-7.72-3.5-1.75-2.27-2.35-5.13-2.35-7.8s.6-5.65,2.35-7.92c1.87-2.35,4.62-3.46,7.64-3.46s5.69,1.11,7.56,3.42c1.79,2.31,2.35,5.41,2.27,8.56h-17.35c.08,2.11.56,4.22,1.75,5.81ZM1053.55,97.78h14.88c-.16-1.99-.56-3.74-1.63-5.13-1.31-1.71-3.5-2.63-5.77-2.59-2.23-.04-4.42.84-5.77,2.63-1.07,1.43-1.55,3.22-1.71,5.09Z"/>
      <path class="cls-1" d="M1089.05,88.23v2.23c-.84-.28-1.79-.44-2.83-.4-1.75,0-3.38.6-4.46,1.67-2.11,1.87-2.27,4.3-2.27,7.32v10.9h-2.31v-21.49h2.11v3.22c.4-.64.96-1.27,1.63-1.87,1.47-1.31,3.46-1.95,5.41-1.95.95,0,1.83.12,2.71.36Z"/>
      <path class="cls-1" d="M1107.88,94.63c-1.15-3.1-3.66-4.58-6.73-4.62-2.86-.08-5.61,1.23-5.61,3.46,0,1.99,1.43,2.83,3.82,3.5,1.07.32,2.51.72,4.5,1.23,3.46.91,6.29,2.9,6.29,6.21,0,1.71-1.03,3.66-2.63,4.66-1.67,1.11-3.86,1.43-5.97,1.43-2.35,0-4.46-.52-6.41-2.23-1.07-.95-1.95-2.31-2.39-3.5l2.15-.8c.44,1.04.96,1.91,1.87,2.71,1.19,1.11,2.95,1.67,4.74,1.67,1.67,0,3.62-.36,4.78-1.11.99-.68,1.55-1.75,1.55-2.94,0-2.31-2.15-3.18-4.74-3.94l-4.18-1.23c-1.35-.4-2.83-.84-4.06-1.91-1.15-1-1.59-2.43-1.59-3.7,0-2.11,1.47-3.98,3.38-4.82,1.51-.68,3.06-.88,4.58-.84,1.51,0,3.1.32,4.5,1.04,2.03,1.03,3.86,3.18,4.42,5.17l-2.27.56Z"/>
      <path class="cls-1" d="M1117.63,107.05c-1.79-2.27-2.35-5.09-2.35-7.88s.6-5.57,2.35-7.84c1.75-2.23,4.58-3.46,7.64-3.46s5.85,1.11,7.64,3.46c1.83,2.27,2.39,5.13,2.39,7.84s-.56,5.61-2.39,7.88c-1.83,2.39-4.54,3.5-7.64,3.5s-5.81-1.15-7.64-3.5ZM1131.08,92.72c-1.31-1.75-3.5-2.63-5.81-2.63s-4.46.88-5.73,2.63c-1.35,1.75-1.79,4.14-1.79,6.45s.44,4.74,1.79,6.49c1.27,1.75,3.46,2.67,5.73,2.67s4.5-.91,5.81-2.67c1.35-1.75,1.75-4.14,1.75-6.49s-.4-4.7-1.75-6.45Z"/>
      <path class="cls-1" d="M1159.66,99.49v10.47h-2.31v-10.43c0-3.58-.36-6.49-2.79-8.24-1.23-.84-2.75-1.19-4.34-1.11-1.51.08-2.95.56-3.98,1.55-1.11.95-1.79,2.39-2.07,3.9-.24,1.07-.28,2.19-.28,3.38v10.94h-2.27v-21.49h2.07v3.22c.36-.52.76-1.04,1.23-1.51,1.43-1.39,3.42-2.11,5.33-2.19,1.99-.16,4.1.24,5.81,1.51,3.1,2.27,3.66,6.05,3.58,9.99Z"/>
      <path class="cls-1" d="M1181.35,109.95v-3.7c-1.87,3.06-4.97,4.3-8.75,4.3-4.02,0-7.04-2.47-7.04-6.45,0-2.71,1.11-4.46,3.78-5.89,2.63-1.35,6.73-1.67,11.7-2.47.04-3.94-2.59-5.65-5.89-5.65-2.35,0-4.54.4-6.53,3.02l-1.63-1.55c2.19-2.83,5.13-3.7,8.48-3.7,2.07,0,4.1.72,5.45,1.95,1.95,1.63,2.51,4.3,2.51,6.81v13.33h-2.07ZM1181.11,97.82c-4.1.6-6.76,1-7.92,1.27-2.95.64-5.29,2.27-5.29,4.77,0,2.79,2.07,4.54,4.97,4.54,3.34,0,5.97-1.31,7.32-3.94.92-1.75.92-3.46.92-6.65Z"/>
      <path class="cls-1" d="M1190.51,109.95v-29.25h2.31v29.25h-2.31Z"/>
      <path class="cls-1" d="M1203,81.54v2.9h-2.31v-2.9h2.31ZM1203,88.46v21.49h-2.31v-21.49h2.31Z"/>
      <path class="cls-1" d="M1228.31,109.95h-17.43v-2.23l14.37-17.03h-14.37v-2.23h17.43v2.27l-14.37,16.99h14.37v2.23Z"/>
      <path class="cls-1" d="M1249.21,109.95v-3.7c-1.87,3.06-4.97,4.3-8.75,4.3-4.02,0-7.04-2.47-7.04-6.45,0-2.71,1.11-4.46,3.78-5.89,2.63-1.35,6.73-1.67,11.7-2.47.04-3.94-2.59-5.65-5.89-5.65-2.35,0-4.54.4-6.53,3.02l-1.63-1.55c2.19-2.83,5.13-3.7,8.48-3.7,2.07,0,4.1.72,5.45,1.95,1.95,1.63,2.51,4.3,2.51,6.81v13.33h-2.07ZM1248.97,97.82c-4.1.6-6.76,1-7.92,1.27-2.95.64-5.29,2.27-5.29,4.77,0,2.79,2.07,4.54,4.97,4.54,3.34,0,5.97-1.31,7.32-3.94.92-1.75.92-3.46.92-6.65Z"/>
      <path class="cls-1" d="M1276.79,81.3v28.65h-2.07v-3.7c-.12.2-.24.4-.36.56-1.67,2.43-4.3,3.74-7.4,3.74s-5.65-1.19-7.44-3.5c-1.79-2.27-2.31-5.13-2.31-7.88s.56-5.61,2.31-7.84c1.67-2.23,4.34-3.46,7.24-3.46s5.93,1.31,7.6,3.66l.12.16v-10.39h2.31ZM1274.72,99.17c0-2.39-.48-4.78-1.83-6.49-1.31-1.79-3.46-2.63-5.73-2.63s-4.46.88-5.77,2.67c-1.31,1.71-1.75,4.1-1.75,6.45s.44,4.74,1.75,6.45c1.31,1.79,3.5,2.75,5.73,2.75s4.46-.91,5.77-2.67c1.35-1.71,1.83-4.14,1.83-6.53Z"/>
      <path class="cls-1" d="M1298.88,109.95v-3.7c-1.87,3.06-4.97,4.3-8.75,4.3-4.02,0-7.04-2.47-7.04-6.45,0-2.71,1.11-4.46,3.78-5.89,2.63-1.35,6.73-1.67,11.7-2.47.04-3.94-2.59-5.65-5.89-5.65-2.35,0-4.54.4-6.53,3.02l-1.63-1.55c2.19-2.83,5.13-3.7,8.48-3.7,2.07,0,4.1.72,5.45,1.95,1.95,1.63,2.51,4.3,2.51,6.81v13.33h-2.07ZM1298.64,97.82c-4.1.6-6.76,1-7.92,1.27-2.95.64-5.29,2.27-5.29,4.77,0,2.79,2.07,4.54,4.97,4.54,3.34,0,5.97-1.31,7.32-3.94.92-1.75.92-3.46.92-6.65Z"/>
      <path class="cls-1" d="M1336.33,81.3v28.65h-2.07v-3.7c-.12.2-.24.4-.36.56-1.67,2.43-4.3,3.74-7.4,3.74s-5.65-1.19-7.44-3.5c-1.79-2.27-2.31-5.13-2.31-7.88s.56-5.61,2.31-7.84c1.67-2.23,4.34-3.46,7.24-3.46s5.93,1.31,7.6,3.66l.12.16v-10.39h2.31ZM1334.26,99.17c0-2.39-.48-4.78-1.83-6.49-1.31-1.79-3.46-2.63-5.73-2.63s-4.46.88-5.77,2.67c-1.31,1.71-1.75,4.1-1.75,6.45s.44,4.74,1.75,6.45c1.31,1.79,3.5,2.75,5.73,2.75s4.46-.91,5.77-2.67c1.35-1.71,1.83-4.14,1.83-6.53Z"/>
      <path class="cls-1" d="M1346.84,105.66c1.31,1.75,3.5,2.67,5.77,2.67,1.63,0,3.1-.36,4.42-1.15,1.19-.8,2.19-1.87,2.9-3.34l2.07.91c-.92,2.03-2.31,3.5-3.9,4.42-1.63.95-3.54,1.39-5.41,1.39-3.02,0-5.93-1.19-7.72-3.5-1.75-2.27-2.35-5.13-2.35-7.8s.6-5.65,2.35-7.92c1.87-2.35,4.62-3.46,7.64-3.46s5.69,1.11,7.56,3.42c1.79,2.31,2.35,5.41,2.27,8.56h-17.35c.08,2.11.56,4.22,1.75,5.81ZM1345.13,97.78h14.88c-.16-1.99-.56-3.74-1.63-5.13-1.31-1.71-3.5-2.63-5.77-2.59-2.23-.04-4.42.84-5.77,2.63-1.07,1.43-1.55,3.22-1.71,5.09Z"/>
      <path class="cls-1" d="M1398.26,90.06c0,2.23-.92,4.38-2.35,5.93-1.59,1.75-4.02,2.79-6.45,2.79h-8.52v11.18h-2.31v-28.65h10.82c2.39,0,4.54.95,6.05,2.39,1.75,1.67,2.71,3.94,2.75,6.37ZM1395.84,90.06c-.04-1.75-.72-3.46-1.91-4.7-1.11-1.11-2.79-1.83-4.46-1.83h-8.52v13.01h8.52c1.83,0,3.66-.88,4.85-2.31.96-1.15,1.55-2.67,1.51-4.18Z"/>
      <path class="cls-1" d="M1416.02,88.23v2.23c-.84-.28-1.79-.44-2.83-.4-1.75,0-3.38.6-4.46,1.67-2.11,1.87-2.27,4.3-2.27,7.32v10.9h-2.31v-21.49h2.11v3.22c.4-.64.96-1.27,1.63-1.87,1.47-1.31,3.46-1.95,5.41-1.95.95,0,1.83.12,2.71.36Z"/>
      <path class="cls-1" d="M1423.94,105.66c1.31,1.75,3.5,2.67,5.77,2.67,1.63,0,3.1-.36,4.42-1.15,1.19-.8,2.19-1.87,2.9-3.34l2.07.91c-.92,2.03-2.31,3.5-3.9,4.42-1.63.95-3.54,1.39-5.41,1.39-3.02,0-5.93-1.19-7.72-3.5-1.75-2.27-2.35-5.13-2.35-7.8s.6-5.65,2.35-7.92c1.87-2.35,4.62-3.46,7.64-3.46s5.69,1.11,7.56,3.42c1.79,2.31,2.35,5.41,2.27,8.56h-17.35c.08,2.11.56,4.22,1.75,5.81ZM1422.23,97.78h14.88c-.16-1.99-.56-3.74-1.63-5.13-1.31-1.71-3.5-2.63-5.77-2.59-2.23-.04-4.42.84-5.77,2.63-1.07,1.43-1.55,3.22-1.71,5.09Z"/>
      <path class="cls-1" d="M1461.23,94.32c-.52-1.23-1.51-2.47-2.63-3.14-1.15-.76-2.55-1.07-3.94-1.07-2.31,0-4.46.88-5.73,2.67-1.35,1.75-1.79,4.1-1.79,6.45s.44,4.7,1.79,6.45c1.27,1.75,3.42,2.67,5.73,2.67,1.39,0,2.83-.36,3.98-1.07s1.95-1.79,2.55-3.06l2.27.8c-.76,1.63-1.87,3.14-3.34,4.06-1.59,1.03-3.38,1.51-5.45,1.51-3.14,0-5.81-1.11-7.64-3.46-1.79-2.31-2.31-5.17-2.35-7.88.04-2.75.56-5.57,2.35-7.88,1.87-2.39,4.5-3.46,7.64-3.46,1.99,0,3.7.4,5.29,1.35,1.55,1,2.9,2.51,3.5,4.3l-2.23.8Z"/>
      <path class="cls-1" d="M1471.62,81.54v2.9h-2.31v-2.9h2.31ZM1471.62,88.46v21.49h-2.31v-21.49h2.31Z"/>
      <path class="cls-1" d="M1493.43,94.63c-1.15-3.1-3.66-4.58-6.73-4.62-2.86-.08-5.61,1.23-5.61,3.46,0,1.99,1.43,2.83,3.82,3.5,1.07.32,2.51.72,4.5,1.23,3.46.91,6.29,2.9,6.29,6.21,0,1.71-1.03,3.66-2.63,4.66-1.67,1.11-3.86,1.43-5.97,1.43-2.35,0-4.46-.52-6.41-2.23-1.07-.95-1.95-2.31-2.39-3.5l2.15-.8c.44,1.04.96,1.91,1.87,2.71,1.19,1.11,2.95,1.67,4.74,1.67,1.67,0,3.62-.36,4.78-1.11.99-.68,1.55-1.75,1.55-2.94,0-2.31-2.15-3.18-4.74-3.94l-4.18-1.23c-1.35-.4-2.83-.84-4.06-1.91-1.15-1-1.59-2.43-1.59-3.7,0-2.11,1.47-3.98,3.38-4.82,1.51-.68,3.06-.88,4.58-.84,1.51,0,3.1.32,4.5,1.04,2.03,1.03,3.86,3.18,4.42,5.17l-2.27.56Z"/>
      <path class="cls-1" d="M1504.73,81.54v2.9h-2.31v-2.9h2.31ZM1504.73,88.46v21.49h-2.31v-21.49h2.31Z"/>
      <path class="cls-1" d="M1513.77,107.05c-1.79-2.27-2.35-5.09-2.35-7.88s.6-5.57,2.35-7.84c1.75-2.23,4.58-3.46,7.64-3.46s5.85,1.11,7.64,3.46c1.83,2.27,2.39,5.13,2.39,7.84s-.56,5.61-2.39,7.88c-1.83,2.39-4.54,3.5-7.64,3.5s-5.81-1.15-7.64-3.5ZM1527.22,92.72c-1.31-1.75-3.5-2.63-5.81-2.63s-4.46.88-5.73,2.63c-1.35,1.75-1.79,4.14-1.79,6.45s.44,4.74,1.79,6.49c1.27,1.75,3.46,2.67,5.73,2.67s4.5-.91,5.81-2.67c1.35-1.75,1.75-4.14,1.75-6.49s-.4-4.7-1.75-6.45ZM1525.51,82.14l-.76-1.83-8.52,3.74.8,1.79,8.48-3.7Z"/>
      <path class="cls-1" d="M1555.79,99.49v10.47h-2.31v-10.43c0-3.58-.36-6.49-2.79-8.24-1.23-.84-2.75-1.19-4.34-1.11-1.51.08-2.95.56-3.98,1.55-1.11.95-1.79,2.39-2.07,3.9-.24,1.07-.28,2.19-.28,3.38v10.94h-2.27v-21.49h2.07v3.22c.36-.52.76-1.04,1.23-1.51,1.43-1.39,3.42-2.11,5.33-2.19,1.99-.16,4.1.24,5.81,1.51,3.1,2.27,3.66,6.05,3.58,9.99Z"/>
    </g>
  </g>
</svg>